<?xml version="1.0" standalone="no"?>
<!DOCTYPE svg PUBLIC "-//W3C//DTD SVG 20010904//EN"
 "http://www.w3.org/TR/2001/REC-SVG-20010904/DTD/svg10.dtd">
<svg version="1.0" xmlns="http://www.w3.org/2000/svg"
 width="395.000000pt" height="71.000000pt" viewBox="0 0 395.000000 71.000000"
 preserveAspectRatio="xMidYMid meet">

<g transform="translate(0.000000,71.000000) scale(0.100000,-0.100000)"
fill="#000000" stroke="none">
<path d="M298 683 c-8 -10 -22 -30 -31 -45 -17 -26 -22 -28 -92 -28 -62 0 -78
-3 -99 -22 -27 -25 -39 -78 -18 -85 7 -3 12 5 12 21 0 48 31 66 114 66 54 0
79 4 90 16 9 8 16 19 16 23 0 4 9 17 20 29 18 19 31 22 105 22 91 0 95 -2 138
-64 17 -24 24 -26 90 -26 82 0 114 -15 119 -57 4 -32 28 -44 28 -13 0 26 -18
61 -39 77 -9 7 -47 13 -88 13 -51 0 -76 4 -87 16 -9 8 -16 19 -16 23 0 4 -9
17 -20 29 -19 20 -31 22 -124 22 -86 0 -105 -3 -118 -17z"/>
<path d="M346 575 c-109 -39 -164 -167 -117 -270 71 -157 290 -163 366 -11 33
66 32 120 -3 187 -47 90 -148 129 -246 94z m139 -24 c157 -73 152 -269 -9
-336 -128 -54 -277 82 -237 216 15 51 56 98 106 120 51 23 89 23 140 0z"/>
<path d="M378 543 c-14 -3 -18 -15 -18 -54 l0 -50 58 32 c87 49 92 55 46 68
-40 11 -56 12 -86 4z"/>
<path d="M298 492 c-48 -53 -48 -74 -2 -101 20 -12 38 -20 41 -18 2 3 3 40 1
82 l-3 78 -37 -41z m27 -77 c0 -29 -2 -32 -13 -21 -11 11 -11 18 -3 35 15 28
16 27 16 -14z"/>
<path d="M478 486 c-21 -11 -38 -23 -38 -26 0 -3 32 -22 72 -43 l71 -39 -7 32
c-6 35 -43 101 -54 99 -4 -1 -24 -11 -44 -23z"/>
<path d="M490 319 l0 -79 24 15 c14 9 34 35 45 58 l20 41 -27 16 c-62 37 -62
37 -62 -51z"/>
<path d="M254 368 c3 -13 6 -28 6 -35 0 -6 11 -25 25 -41 l25 -30 40 21 c22
12 40 24 40 27 0 6 -126 80 -135 80 -4 0 -5 -10 -1 -22z"/>
<path d="M395 288 l-69 -41 39 -14 c22 -8 54 -11 73 -8 31 6 32 7 32 55 0 28
-1 50 -2 50 -2 -1 -34 -19 -73 -42z"/>
<path d="M870 360 c0 -108 2 -120 18 -120 15 0 17 12 17 120 0 108 -2 120 -17
120 -16 0 -18 -12 -18 -120z"/>
<path d="M980 360 c0 -99 3 -120 15 -120 11 0 15 20 17 98 l3 97 33 -87 c44
-115 59 -117 97 -10 15 42 31 81 36 87 5 5 9 -30 9 -88 0 -80 3 -97 15 -97 13
0 15 20 15 121 l0 120 -26 -3 c-24 -3 -31 -13 -58 -85 -17 -45 -33 -84 -36
-87 -3 -3 -21 35 -39 84 -29 79 -36 90 -57 90 -24 0 -24 0 -24 -120z"/>
<path d="M1351 458 c-5 -13 -25 -63 -45 -112 -20 -50 -36 -94 -36 -98 0 -19
31 -6 40 17 9 22 15 25 64 25 49 0 54 -2 60 -25 4 -16 13 -25 26 -25 19 0 19
1 -1 53 -12 28 -33 82 -48 120 -27 69 -45 83 -60 45z m43 -85 c9 -26 16 -48
16 -50 0 -2 -18 -3 -39 -3 l-39 0 16 50 c9 28 19 50 23 50 4 0 14 -21 23 -47z"/>
<path d="M1549 452 c-55 -49 -48 -163 12 -200 31 -20 96 -18 119 3 18 16 20
17 20 2 0 -10 7 -17 15 -17 12 0 15 13 15 60 l0 60 -45 0 c-25 0 -45 -4 -45
-10 0 -5 14 -10 30 -10 47 0 34 -48 -19 -70 -60 -24 -116 30 -107 103 5 44 27
73 61 79 27 6 85 -16 85 -32 0 -5 7 -10 15 -10 24 0 18 27 -11 49 -40 32 -105
28 -145 -7z"/>
<path d="M1790 360 l0 -120 80 0 c64 0 80 3 80 15 0 12 -13 15 -60 15 l-60 0
0 35 0 35 55 0 c42 0 55 3 55 15 0 12 -13 15 -55 15 l-55 0 0 40 0 40 60 0
c47 0 60 3 60 15 0 12 -16 15 -80 15 l-80 0 0 -120z"/>
<path d="M2100 360 c0 -108 2 -120 18 -120 15 0 17 12 17 120 0 108 -2 120
-17 120 -16 0 -18 -12 -18 -120z"/>
<path d="M2210 360 c0 -99 3 -120 15 -120 11 0 15 19 17 93 l3 92 51 -90 c36
-63 58 -91 73 -93 20 -3 21 0 21 117 0 101 -2 121 -15 121 -12 0 -15 -17 -15
-90 0 -49 -3 -90 -7 -90 -5 0 -30 41 -56 90 -35 67 -53 90 -67 90 -19 0 -20
-7 -20 -120z"/>
<path d="M2430 465 c0 -11 11 -15 40 -15 l40 0 0 -105 c0 -98 1 -105 20 -105
19 0 20 7 20 105 l0 105 40 0 c29 0 40 4 40 15 0 12 -18 15 -100 15 -82 0
-100 -3 -100 -15z"/>
<path d="M2670 389 c0 -86 9 -125 34 -141 16 -11 84 -10 106 2 26 14 40 70 40
158 0 65 -2 72 -20 72 -19 0 -20 -7 -20 -93 0 -104 -7 -117 -57 -117 -44 0
-53 21 -53 124 0 70 -3 86 -15 86 -12 0 -15 -17 -15 -91z"/>
<path d="M2910 360 c0 -113 1 -120 20 -120 19 0 20 7 20 120 0 113 -1 120 -20
120 -19 0 -20 -7 -20 -120z"/>
<path d="M2990 465 c0 -11 11 -15 40 -15 l40 0 0 -105 c0 -98 1 -105 20 -105
19 0 20 7 20 105 l0 105 34 0 c21 0 36 6 40 15 4 13 -10 15 -94 15 -82 0 -100
-3 -100 -15z"/>
<path d="M3230 360 c0 -100 3 -120 15 -120 13 0 15 20 15 120 0 100 -2 120
-15 120 -12 0 -15 -20 -15 -120z"/>
<path d="M3359 452 c-39 -35 -50 -101 -25 -153 20 -43 47 -60 98 -61 106 -1
156 136 78 214 -40 40 -106 40 -151 0z m131 -24 c27 -29 28 -106 1 -139 -21
-26 -79 -32 -105 -10 -39 32 -37 138 2 160 30 18 80 13 102 -11z"/>
<path d="M3610 360 c0 -99 3 -120 15 -120 11 0 15 19 17 92 l3 91 50 -91 c40
-74 54 -92 73 -92 22 0 22 2 22 120 0 113 -1 120 -20 120 -17 0 -20 -8 -22
-90 l-3 -90 -50 90 c-33 59 -56 90 -67 90 -16 0 -18 -12 -18 -120z"/>
<path d="M43 382 c-13 -22 7 -45 24 -27 7 8 7 16 -1 27 -11 15 -13 15 -23 0z"/>
<path d="M763 382 c-13 -22 7 -45 24 -27 7 8 7 16 -1 27 -11 15 -13 15 -23 0z"/>
<path d="M45 230 c-11 -17 3 -57 27 -80 21 -19 34 -20 343 -20 309 0 322 1
343 20 24 23 38 63 27 80 -10 16 -25 2 -25 -25 0 -52 -18 -55 -347 -55 -290 0
-304 1 -323 20 -11 11 -20 29 -20 39 0 23 -16 36 -25 21z"/>
</g>
</svg>
